<?xml version="1.0" encoding="UTF-8" standalone="no"?>
<svg
   xmlns:dc="http://purl.org/dc/elements/1.1/"
   xmlns:cc="http://creativecommons.org/ns#"
   xmlns:rdf="http://www.w3.org/1999/02/22-rdf-syntax-ns#"
   xmlns:svg="http://www.w3.org/2000/svg"
   xmlns="http://www.w3.org/2000/svg"
   xmlns:sodipodi="http://sodipodi.sourceforge.net/DTD/sodipodi-0.dtd"
   xmlns:inkscape="http://www.inkscape.org/namespaces/inkscape"
   width="840.21106"
   height="1215.9996"
   id="svg2"
   version="1.1"
   inkscape:version="0.91 r13725"
   sodipodi:docname="Flag_of_Ghana.svg">
  <metadata
     id="metadata16">
    <rdf:RDF>
      <cc:Work
         rdf:about="">
        <dc:format>image/svg+xml</dc:format>
        <dc:type
           rdf:resource="http://purl.org/dc/dcmitype/StillImage" />
        <dc:title></dc:title>
      </cc:Work>
    </rdf:RDF>
  </metadata>
  <defs
     id="defs14" />
  <sodipodi:namedview
     pagecolor="#ffffff"
     bordercolor="#666666"
     borderopacity="1"
     objecttolerance="10"
     gridtolerance="10"
     guidetolerance="10"
     inkscape:pageopacity="0"
     inkscape:pageshadow="2"
     inkscape:window-width="1600"
     inkscape:window-height="837"
     id="namedview12"
     showgrid="false"
     fit-margin-top="0"
     fit-margin-left="0"
     fit-margin-right="0"
     fit-margin-bottom="0"
     inkscape:zoom="0.40166489"
     inkscape:cx="151.99303"
     inkscape:cy="629.60711"
     inkscape:window-x="-8"
     inkscape:window-y="-8"
     inkscape:window-maximized="1"
     inkscape:current-layer="svg2" />
  <path
     style="fill:#fcd116"
     d="m 91.53125,403.33398 c 1.1243,1.20694 2.51215,2.21849 3.42969,2.68164 1.26264,0.63582 6.98668,0.82049 8.57422,0.93946 0.15495,0.011 1.43775,0.69304 1.89062,0.74804 0.90674,0.11001 1.89814,-0.05 2.79688,0.084 1.69351,0.25092 3.09056,1.39093 4.57812,2.13672 l 0.4043,0.81836 c 0.22893,1.00371 -1.37344,2.70256 -1.39844,4.20312 -0.13895,8.15862 -0.77077,7.50661 5.94727,11.73438 1.65751,1.0437 0.80667,7.51916 0.76367,9.01172 -0.075,2.56726 4.51759,6.32694 5.31836,9.33007 0.054,1.55855 -2.59267,3.97733 -4.24219,3.98633 l -1.24023,1.36719 -0.1543,0.95898 0.50781,0.8711 7.04688,-0.63086 c 0.07,0.11697 0.47619,0.72726 0.49218,0.82226 l 2.17188,13.19141 c 0.083,0.50686 0.37288,1.05084 0.42188,1.55469 0.0539,0.56884 -0.18171,1.26738 -0.0957,1.82422 0.60183,3.90186 1.66278,7.78494 2.14063,11.71679 0.104,0.84776 -0.0543,1.81473 0.0957,2.64649 l 2.48242,13.70508 c 0.47086,2.59425 1.06792,5.36403 1.76172,7.90429 0.3409,1.24664 0.93114,2.45736 1.24805,3.70899 1.24163,4.89358 2.0917,9.97462 2.93945,14.95117 0.20095,1.18666 0.0254,2.39704 0.19531,3.51172 0.47086,3.0811 1.70179,6.18614 2.26563,9.28125 0.88776,4.86358 0.41992,9.781 0.8418,14.64258 0.065,0.74178 0.36559,1.46234 0.43359,2.20312 0.18395,1.98743 0.22111,4.02707 0.33008,6.02149 0.027,0.48786 0.13517,0.98979 0.20117,1.47265 -0.53185,1.26164 -9.21236,5.44221 -10.20508,5.99805 -2.26534,1.26563 -6.1338,0.59724 -8.53711,-0.22852 -1.21064,0.47886 -2.50783,2.68754 -2.88672,3.82422 l -1.85156,1.1211 -0.36719,1.26367 c 0.061,1.25463 0.87242,2.6099 1.49024,3.59961 2.31433,3.70493 7.01098,9.45278 3.5,13.89648 -0.29491,0.37389 -1.25904,1.73924 -1.88086,1.74024 -1.52456,0.002 -3.52235,-0.21412 -5.00391,0.008 -2.03641,0.30492 -8.31533,1.97261 -9.62695,4.04101 -0.65181,1.02871 -0.86572,2.48013 -1.51953,3.50782 -0.17195,0.26992 -1.4159,1.18862 -1.67383,1.51953 -3.17708,4.08081 -7.57658,8.74546 -8.74024,13.96094 -1.12667,-0.85875 -2.356,-2.69282 -2.71289,-4.06641 -0.90874,-0.90174 -2.81402,-1.59962 -4.01367,-1.89453 -0.079,1.19466 -0.0542,2.55775 -0.24609,3.73242 -0.06,0.3689 -0.61249,1.36646 -0.64649,1.69336 l -1.13086,10.63672 c -0.049,0.46487 -0.40548,0.84084 -0.60742,1.26172 -1.42459,2.96713 -2.49462,2.47816 -4.20312,4.13867 -0.88774,0.86374 -1.71095,2.04618 -2.51172,3.0039 0.27592,3.64394 -0.58396,5.12324 -3.45313,7.51954 -0.034,2.33232 -0.29984,3.35544 -1.4375,5.16992 -0.79877,1.27463 -1.80857,2.62732 -2.48437,3.96093 -0.3529,0.69981 -0.41961,1.65689 -0.72852,2.38868 -0.52285,1.24463 -1.27765,2.41365 -1.8125,3.65429 -0.42587,0.98472 -0.64835,2.05631 -1.07422,3.04102 -0.82277,1.90344 -6.41566,13.30096 -6.5996,14.2207 -0.41986,2.10539 -0.30891,3.3421 -0.50586,5.48047 -0.49086,5.34244 -0.67451,12.31166 -1.61524,17.57813 -0.44187,2.46729 -2.44495,4.41379 -2.75586,6.91406 -0.22994,1.85746 0.0895,3.88901 -0.19336,5.73047 -0.17495,1.14167 -0.89754,2.67915 -1.27344,3.79883 -2.53326,7.55379 -3.02124,15.21894 -3.875,23.09765 -0.22793,2.10339 3.32008,6.50808 4.38477,7.97266 -3.72192,6.62907 -8.7874,12.53062 -13.75195,18.25195 l -1.64258,12.60156 c -0.92171,1.17864 -7.99869,2.17094 -10.29102,3.60352 -2.28233,4.06282 -5.8249,11.27682 -8.24218,14.67383 -0.50784,0.71379 -1.23776,1.54281 -1.64063,2.30859 -0.10396,0.19694 -0.064,0.94791 -0.16797,1.13086 -0.61982,1.08368 -1.60023,2.02307 -2.24804,3.09375 l -7.85157,12.98633 706.30274,0 c 0.1791,-0.13654 0.3617,-0.23911 0.5488,-0.28906 2.2314,-3.69492 3.8935,-6.95741 1.0723,-10.56836 -0.2639,-0.33791 -1.0629,-1.21404 -1.5078,-1.375 -1.9414,-0.70079 -3.6212,-0.51531 -5.2168,-2.2168 l 0.3047,-3.47656 0.7793,-0.4336 0.4804,-1 c 2.6592,-0.79477 4.5491,-2.96512 6.4805,-4.80859 2.1064,0.18894 7.2642,0.19994 8,-2.61523 0.3619,-2.81919 -0.6013,-5.6406 -0.7813,-8.42579 -0.1109,-1.71451 1.8695,-2.96331 2.7832,-4.16796 0.068,-0.091 0.6912,-1.88398 0.7833,-2.12891 -0.4119,-2.07439 -2.4732,-3.55796 -2.8711,-5.82031 -0.6438,-3.64393 2.85,-6.54172 4.3066,-9.42188 0.7698,-1.51856 1.2757,-3.58746 1.8535,-5.20898 0.8418,-2.37132 1.7594,-10.48581 2.2363,-13.37696 0.055,-0.30791 -0.027,-1.68228 0.045,-1.86523 0.5988,-1.52356 2.8301,-4.18984 2.7421,-5.81836 -0.07,-1.31063 -0.83,-2.80339 -1.0449,-4.125 -0.3689,-2.29434 -0.4194,-4.50023 -0.3574,-6.81055 0.032,-1.17666 -0.6035,-2.82934 -0.9004,-4 -1.1027,-1.42258 -4.1357,-2.393 -5.8652,-2.375 -1.2087,0.63581 -2.4223,1.40637 -3.709,1.86524 -7.2339,2.58424 -7.1572,-1.37447 -9.3945,-1.14453 -0.8518,-0.6958 -2.91,-3.62341 -3.045,-3.69141 0.068,-1.38559 -0.4086,-5.53522 -1.8281,-6.20703 l -1.2187,0.51953 -0.2832,-1.3125 -1.9278,-1.54883 c 0.4668,-0.85375 1.5469,-2.05965 2.4766,-2.43554 1.2457,-1.24364 -1.6252,-6.95313 -1.0274,-9.56836 0.8618,-3.76392 1.8498,-7.49363 1.7208,-11.39649 0.8688,-0.6648 3.9551,-2.75651 5.1328,-2.51758 l 0.6972,-1.1289 c 1.9345,-0.16595 3.665,-1.11544 5.3965,-1.90821 0.1719,-0.79576 -0.9222,-3.81381 -0.6523,-6.11914 0.4219,-3.62395 1.5274,-7.51055 2.873,-10.89257 1.5566,-0.44387 3.7703,-0.10564 5.0039,0.99804 1.0187,-3.04611 -3.5207,-8.76901 -0.4336,-11.19531 l 1.5664,-0.2168 0.3926,-0.39257 -0.1738,-3.9043 -0.6094,-0.78125 -1.2187,-0.17383 c -0.3789,-4.02182 0.4985,-9.62632 1.6562,-13.36523 -1.0637,-1.12767 -1.5623,-9.34176 -1.6973,-11.32618 l -0.8281,-0.60742 c -0.9427,-4.12679 -3.136,-10.37088 -1.5215,-14.38672 l 1.1582,-0.70117 c -0.3889,-2.27634 -1.49,-4.37387 -1.9179,-6.57422 -0.049,-0.25493 0.291,-1.23862 0.25,-1.51953 -0.25,-1.7505 -0.926,-3.48784 -1.2129,-5.23633 -0.3989,-2.4173 -0.3123,-9.45465 0.6504,-11.58203 l 2.2539,-1.48828 c 2.1714,-7.2289 -3.2462,-7.34082 -2.9473,-10.125 l 0.5977,-1.60742 c 1.6535,-1.17066 3.6803,-2.04764 5.5058,-2.90039 l 0.334,-2.08594 1.0801,-1.04687 c 0.7677,-0.98972 1.5428,-2.44963 1.7598,-3.69727 l 0.4765,-0.30664 c 1.3436,0.075 4.7643,0.0165 5.959,-0.7793 3.8099,-6.22619 5.429,-1.81935 9.5098,-4.01172 1.1607,-1.47257 1.0095,-7.44974 0.8496,-9.19922 -0.6598,-0.46686 -1.3689,-1.10381 -1.8418,-1.76562 l 0.3906,-2.23047 -0.6582,-0.084 -0.6523,-0.51758 c -0.4959,-1.0117 -0.2732,-4.08547 -0.1563,-5.16016 l -1.1348,-0.73242 -0.096,-1.64648 c -0.4059,-0.19694 -1.3931,-0.45792 -1.832,-0.20899 -1.9804,-1.88445 -3.7836,-3.32696 -6.4668,-4.2207 -2.0654,-2.21535 -0.7173,-10.63651 -3.8144,-13.51367 -0.6718,-0.62382 -2.104,-1.15691 -2.9707,-1.63477 l -0.5743,-1.55859 c -1.8994,-1.7355 -5.3387,-1.19291 -7.1582,-2.35157 -2.2903,-1.45757 -3.3872,-3.55206 -5.3027,-5.39453 -1.0037,-0.96771 -3.4198,-1.01311 -3.9316,-1.66992 -0.201,-0.93872 -0.5768,-1.98169 -1.0606,-2.81445 l -0.959,-0.0391 -1.4746,1.22265 -1.2676,-0.2539 -0.791,-1.33985 c -1.6735,-0.41488 -2.0741,-2.431 -2.332,-3.89258 l -0.875,-0.60351 -3.0488,0.27539 c -0.2809,-0.3589 -1.754,-1.52975 -1.793,-1.59375 l -5.3008,-8.7207 c -0.3069,-0.50386 -0.438,-1.19863 -0.7109,-1.73047 -0.5619,-1.09569 -1.5763,-1.844 -2.2051,-2.84571 -1.8175,-2.89815 -3.6428,-6.25204 -5.2793,-9.28515 -0.8047,-1.49357 -1.9771,-2.76446 -2.459,-4.41797 l 0.6602,-0.50586 0.3437,-0.91211 1.6133,-0.40039 0.2578,-0.52148 c 0.021,-0.50985 -1.6017,-1.73941 -1.9746,-2.07032 l -0.4004,-1.21289 0.2969,-1.30273 c 1.0407,-1.75149 2.5492,-1.00243 4.0957,-1.15039 0.7408,-0.071 1.174,-0.7153 2.1367,-0.31641 l 1.711,1.98633 1.1777,-0.0937 0.7793,-1.21875 -1.0137,-1.51367 0.3477,-0.43555 1.0468,-0.0937 c 0.6638,-0.56683 1.367,-1.35735 2.2598,-1.5293 l 0.6992,0.12696 1.7129,2.41992 0.6563,0.16992 c 0.9667,-0.54084 5.0136,-2.53232 5.4355,-3.41406 0.116,-1.71551 0.4088,-3.62239 0.9766,-5.25391 0.7188,-0.62082 2.9342,-2.28697 3.0801,-3.00976 -0.2149,-0.77178 -0.1932,-2.29346 0.6386,-2.73633 l 1.0039,-0.0488 0.2578,-0.82617 c 0.018,-1.82847 -2.018,-2.72064 -2.291,-4.32617 -0.1749,-1.0337 -0.1313,-2.28215 -0.1933,-3.33985 -0.013,-0.23993 0.065,-0.52768 0.094,-0.76562 -2.1754,-3.29703 -11.4143,-17.86255 -11.7402,-20.25586 -0.093,-0.6856 -0.1326,-1.35872 -0.1445,-2.02735 l -609.10941,0 z"
     id="rect6"
     inkscape:connector-curvature="0" />
  <path
     style="fill:#006b3f"
     d="m 12.25586,810.66602 -6.87109,11.36328 -0.47071,0.77734 -0.5664,9.08398 c -0.0919,1.45959 3.24867,3.49957 4.1914,4.19336 l 0.4043,2.73633 c 0.71079,0.48786 2.30646,2.707 2.10352,3.55274 l -0.78125,0.35156 -0.5586,1.47851 -0.65234,0.17774 c -1.98643,1.19766 -3.75179,5.76544 -4.22266,7.83984 l -1.17187,0.4375 c -0.61582,1.24664 -1.24231,2.15098 -2.33399,3.09571 C 1.16021,856.57767 0.6928,860.07222 0,860.49609 l 0.0977,1.69336 c 1.0367,0.96572 2.54727,2.03511 3.92187,2.45899 -0.041,0.95072 -0.57662,10.47532 -0.47265,10.9082 l 8.15234,33.68555 c 0.21594,0.89974 1.29341,3.26384 1.31641,3.38281 0.27192,1.3806 -0.12885,4.96079 1.80859,5.59961 0.14496,1.09768 0.41222,2.29004 0.44922,3.38672 0.12396,3.71992 0.71014,6.26029 -0.52149,9.73828 1.38459,-0.34791 3.06502,-0.3443 4.47461,-0.23633 1.20266,1.42359 6.95886,13.55005 7.97657,15.4375 0.54683,1.0147 1.0465,1.50488 1.40039,2.60156 0.91574,2.83617 1.35114,7.93648 1.875,11.01758 0.30391,1.78748 0.29597,3.60593 0.58789,5.35742 0.11596,0.6928 0.54118,1.39119 0.66015,2.08399 0.49884,2.88716 0.78178,6.23397 1.56055,9.03515 0.58781,2.11139 1.9165,4.53373 2.78125,6.57813 0.31389,0.74379 0.40551,1.61561 0.73242,2.31641 0.80674,1.7275 1.81911,3.43163 2.71485,5.11914 0.10495,0.19693 0.0348,0.99084 0.13476,1.21679 l 5.13086,11.49805 c 0.3479,0.7768 -0.67036,18.3762 -0.82031,20.5215 -0.034,0.4659 -0.42761,1.0097 -0.47461,1.4805 -0.22696,2.3203 -0.0367,4.8715 -0.0547,7.2168 1.28463,-0.167 1.91651,0.2749 2.78125,0.3359 1.42858,0.1 2.47888,-0.568 3.72852,-0.668 0.58082,-0.046 1.3153,0.2439 1.91211,0.2539 1.50257,0.025 3.05404,-0.098 4.55859,-0.1484 l -2.02539,13.5293 1.2207,1.168 2.69336,0.5117 c 0.53685,0.9747 1.54958,2.4703 2.5293,3.0761 l 0.95508,-0.047 1.40234,-1.3848 c 0.6618,-0.021 2.79823,-0.2538 3.24609,-0.8477 l 1.32422,0 c 0.22493,-1.3526 3.11624,-3.717 4.46485,-3.4941 l 0.42773,-1.2187 1.03906,-0.3985 0.6875,-0.916 0.92383,1.6895 c 4.62266,1.4136 3.70074,3.2216 8.44336,3.5586 0.56983,0.6007 1.1904,1.1653 1.82422,1.6992 0.76679,0.1359 2.00375,-0.3151 2.55859,-0.836 l 0.57227,2.1289 1.82227,-0.051 0.4375,0.3027 -0.20899,1.957 1.17188,0.082 1.13281,1.2558 c -0.47484,1.9184 -1.87941,8.0305 -1.43555,10.0059 0.61482,2.7372 1.33657,5.5006 1.85742,8.2558 0.72979,3.8749 1.08134,7.8816 1.91211,11.7305 0.55984,2.5912 2.48827,4.9576 3.50196,7.3359 0.4099,0.9637 0.29788,2.3573 1.05468,3.17 0.006,1.4596 0.24742,6.6404 -0.27343,7.8281 l -2.86524,-0.6426 -2.2539,0.7481 -2.17969,-2.0782 -0.60547,0 -1.51172,1.875 1.00391,1.3457 -1.08203,0.7871 c 1.68051,3.1171 1.18556,1.9259 0.93164,6.0118 -0.003,0.043 -0.42566,0.7051 -0.47266,0.7851 l -1.79102,0.5606 -0.35937,0.7246 c 0.22591,2.2363 1.44169,2.9159 3.36914,3.9726 l -0.36133,0.4824 -1.4414,-0.2402 1.32421,2.2891 2.88477,-0.9668 0.53711,2.3222 -0.95508,0 0.65625,1.3457 -1.5625,-0.039 -0.34375,0.6973 0.21875,0.5214 1.25977,0.125 0.002,0.6075 -0.60547,0.2636 0.35547,2.2168 -0.91211,0.047 -0.30078,0.6094 1.08984,0.9531 0.26563,1.3906 c 0.12496,-0.2629 0.65255,-0.5644 0.89648,-0.6894 l 0.52149,0.1699 c 0.23093,0.9907 0.60197,2.0653 0.66797,3.084 l 0.61132,0.5176 c 0.26192,0.7437 -0.21603,2.422 -0.50195,3.0918 l 0.39453,0.6484 1.17188,0.2988 -0.51367,0.959 0.47851,0.3027 0.60742,-0.1796 c 0.39489,0.3469 1.16342,2.3204 1.40235,2.8632 -0.13396,0.3859 -0.36168,0.76 -0.59961,1.0899 l -0.82617,-0.039 -0.98829,1.3965 -0.0332,1.6973 -0.30078,0.3496 -2.30078,-0.074 c -0.43586,0.2949 -0.64869,2.0095 -0.67969,2.4824 l -0.69336,-0.082 -1.52734,-1.5566 -1.99805,-0.25 -0.69141,0.3086 -0.52929,-1.2578 -0.72657,1.7871 -0.56054,0.3086 c -0.99671,-0.2019 -1.5348,-0.4616 -2.47852,-0.9414 l -0.4707,1.1328 -0.48047,-0.8809 -1.14258,1.3262 -1.86328,-2.2871 c -1.12468,0.055 -1.70193,0.6663 -1.92187,1.748 l -1.80469,0.1211 c -1.35658,-1.2556 -4.92854,-3.8591 -6.83399,-2.5214 l -0.91406,-0.3868 -0.55859,1.0879 c -2.61624,-0.4619 -5.66041,-0.9239 -7.58985,1.5274 0.3269,0.4669 0.51746,2.2741 0.56446,2.8359 l -0.38867,0.3926 -2.47657,-0.375 -1.63672,1.9668 c -0.52085,0.2559 -3.7465,-0.6112 -5.12109,-0.4473 -1.58154,-1.4105 -5.03915,-4.9425 -6.93359,-5.6113 -1.12968,-0.3989 -2.02199,0.3251 -3.4336,-1.0645 l -0.56054,0.6114 -3.14258,-0.053 0.12695,1.5313 -3.06641,-1.6231 -0.78124,0.8438 -0.11719,0.7832 -0.42188,0.3027 -4.08789,-1.2011 -0.90234,0.4824 -1.62305,-0.3594 0.14649,3.0762 1.00976,0.2539 4.89844,1.7148 2.79687,0.9766 5.9961,1.4414 13.41797,2.0058 1.13672,0.2129 2.25,0.42 8.16992,2.125 1.73437,-0.1426 7.42774,1.8262 1.99804,0.205 1.6875,0.3633 6.17578,1.3301 5.51368,0.75 7.38476,1.7402 4.33399,0.6582 2.56836,0.3887 5.11914,1.5742 0.0918,0 0.48243,0.1758 5.25585,1.3184 2.16993,0.1621 4.47656,1.3652 2.97656,0.5156 16.04297,2.7715 7.31445,1.9492 0.19922,0.053 5.6875,0.9687 2.86133,1.3184 1.39844,0.3125 3.56054,0.8945 0.10352,0.01 2.58789,0.2363 3.73438,0.9785 1.82812,0.8613 14.4707,5.1856 0.25977,0 0.18359,1.5644 1.86914,0.6856 0.78321,0.8652 1.31836,3.125 0.31445,2.3028 1.66602,0.7773 3.02929,1.416 2.26758,1.9453 1.22656,2.2559 2.5586,0.1601 1.60937,0.7305 1.4375,1.2559 0.74414,1.3867 0.1836,2.1309 1.29687,-1.1387 1.3418,-0.049 1.82617,0.6855 1.82617,0.8164 2.29883,-0.012 2.13281,1.5117 0.26367,0.7383 -0.8125,2.2656 0.0899,0.6524 0.73828,0.1269 0.35156,1.084 1.51953,0.123 0.65235,0.3887 0.56836,0.7793 0.0527,2.0879 0.43555,0 1.20703,-1.1367 0.95312,-0.4395 1.04102,0.082 0.82617,0.8222 0.50391,-0.1719 0.79492,-0.2714 0.60937,0.3886 0.52149,-0.09 2.47461,-2.1231 1.21289,0.3477 0.7793,-0.6074 1.19921,-0.3828 3.46875,0.02 4.33789,0.027 0.95313,-0.2226 1.03711,-0.6133 0.85937,-1.7871 3.23633,-2.9746 0.77539,-1.1348 1.21094,-0.4824 0.21094,-1.3926 0.51758,-0.6562 3.89453,-1.7578 0.33789,-1.7403 4.76758,-0.6758 1.59765,-1.6601 2.16211,-1.0547 0.51367,-1.6113 1.04493,1.039 3.64257,-0.539 1.03907,-0.3535 0.60351,-0.7012 1.29883,-1.3867 2.76562,-1.2383 0.38672,-0.916 1.125,-0.6563 1.26172,0.6016 1.56055,0.037 2.1582,-0.6641 0.69336,-0.022 2.7832,0.096 1.38672,-0.3984 0.73438,-0.6992 0.0586,-0.8496 0.14453,-2.0215 0.94336,-2.3086 -0.22265,-1.1289 0.38672,-0.7422 1.42773,-0.9629 4.58789,-1.8476 0.25781,-0.4375 -0.22265,-1.4766 0.73046,-1.4824 2.55079,-1.7071 3.76757,-1.2793 3.64258,-0.3203 1.21289,-0.4824 2.88867,-4.2305 -0.30859,-0.9121 0.0527,-0.4472 0.19531,-1.6856 -0.2207,-0.998 1.0371,-0.9629 2.76954,-1.5332 1.86328,-0.7031 1.64648,-0.2696 4.52344,0.1465 0.0195,-0.1348 2.17773,-0.7812 8.59766,-1.2695 3.54102,-0.5215 1.34179,-0.5723 7.80274,-1.7285 1.42578,-1.0488 0.45117,-0.041 0.92188,-0.1211 5.21875,-0.7793 0.25781,-0.6094 1.51953,0.2129 1.25391,-0.7012 1.08593,0.3418 3.25196,-0.6211 2.33984,-0.7051 0.77344,-1.3945 3.68359,-1.3203 1.34375,-0.1367 3.50195,-0.2207 0.18555,-0.012 4.42188,-0.67 5.90039,-0.1543 3.28711,-2.1445 2.77148,-1.1855 1.38281,-1.3536 1.25782,-0.4394 0.90234,-1.6563 1.16992,-0.3086 0.86914,0.17 3.50977,-1.4903 0.77343,-1.2656 1.25586,-0.7012 0.51758,-0.7402 0.82227,-0.5254 4.07422,-1.1875 0.16406,-0.1016 4.76953,-2.875 1.64258,-1.5722 1.82031,-0.4844 2.30078,-0.053 3.46875,-0.5352 7.59375,0.3203 0.38867,-0.6094 0.69141,-0.4394 6.11914,0.1523 6.5,-0.3418 0.6875,0.9024 1.96485,0.1269 2.88671,-1.3496 1.93164,0.3496 3.47071,-0.012 9.58398,-1.4258 1.90235,-0.1289 0.82812,-0.055 1.43164,-0.3964 1.38281,-1.4825 1.64844,-0.5703 0.90625,-1.5254 1.20899,-0.7871 1.16601,-1.916 2.85938,-1.5762 0.38867,-0.5214 -0.2207,-1.1739 0.73437,-0.2636 1.12305,-1.2657 1.95117,-0.5722 0.99609,-0.8282 0.42969,-1.3496 0.25781,-0.8711 1.21094,-1.3086 3.50781,-1.4453 1.9961,-0.5293 3.55078,-1.5761 2.21289,-0.5723 0.73437,-0.7422 0.86914,0.041 1.99414,-0.094 4.20704,-0.9707 0.47265,-1.5664 1.55664,-1.6563 0.6875,-1.3515 1.5918,0.375 7.90819,-2.0567 3.3847,-0.2285 2.1719,-0.918 0.7305,-0.3086 3.4707,-0.75 2.0801,-0.8339 0.6484,-0.7852 1.0332,-2.4785 1.9883,-2.3125 1.5156,-1.0039 0.3887,-0.6973 -0.4375,-1.0859 0.3437,-1.1309 0.6055,-0.5234 1.8203,-1.0059 2.5137,-0.959 2.082,-0.7949 3.1133,-2.8789 2.164,-2.7012 3.1641,-1.2695 2.9863,-2.3125 1.9981,-0.6113 4.4648,-1.3633 1.9532,-0.094 6.8964,-1.7148 3.5567,-0.4883 5.6836,-1.5371 2.6015,-0.3984 0.7364,-0.2207 1.6504,-0.3946 1.08,-1.6543 4.8575,-1.3613 2.08,-0.2676 3.8575,-1.7929 3.5156,-0.6172 1.5605,-0.8731 2.7344,-1.0078 0.4316,-0.3125 1.3868,-0.9961 2.6015,-1.1816 1.6465,-1.1348 2.252,-2.1367 1.3437,-0.6992 3.3399,-1.0957 2.7343,-0.1367 4.8086,-2.0547 0.4805,-0.2207 0.5391,-0.418 1.3671,-1.0625 1.2149,-0.3945 0.7793,-0.7422 1.2539,-2.2188 1.6445,-1.1797 0.3028,-0.5644 -0.2188,-0.4356 0.6914,-1.2617 2.0391,-1.1367 2.0332,-2.3086 0.9531,-0.6543 3.7754,-0.748 2.0684,-0.8555 0.3613,-0.1484 2.8183,-0.3125 2.7735,-1.875 1.3847,-1.8731 7.5899,-3.4512 0.5644,-0.4785 2.6778,-0.459 3.7441,-0.6425 1.9102,-0.8731 2.2539,-1.7871 4.164,-1.3144 2.1719,-0.1778 2.7305,-1.4844 5.3808,-0.8359 2.4317,-0.4395 3.9062,-0.051 2.084,-0.4844 2.041,0 10.336,1.459 2.2168,0.6035 0.5742,0.082 3.5527,0.5176 20.2637,0.8691 5.0078,0.2149 6.8594,-0.1406 3.2148,0.4296 1.3906,0.5606 2.8653,0.1699 2.1269,-0.1777 0.025,-0.01 0.5801,-0.209 1.8691,0.3008 7.25,-0.1426 2.4766,0.4746 3.6035,-0.5273 1.7793,0.4336 6.0547,-0.6426 1.8477,-0.1953 2.8652,-0.7422 3.9043,-1.4414 10.8535,-0.623 3.2559,-0.8731 0.5801,-0.2988 3.3242,-1.707 1.4746,-1.3067 3.164,-3.4804 2.0801,-3.2637 1.8184,-3.7832 0.4316,-1.9571 -0.3769,-3.38668 -0.062,-0.56835 0.3418,-3.13086 0.6074,-1.56446 6.6738,-10.00586 2.8164,-5.52343 0.1563,-0.21289 3.2246,-4.31055 0.5195,-1.04492 0.3906,-0.17383 1.2578,-1.82617 3.211,-2.78516 8.7226,-5.66016 3.3868,-1.78515 6.7246,-2.74414 -0.076,-9.56055 c -1.2596,0.013 -2.6135,0.12002 -3.8672,0.041 -0.3069,-0.02 -0.6891,-0.32561 -0.998,-0.34961 -1.3506,-0.10897 -3.5044,0.39867 -3.7793,0.38867 -1.2966,-0.046 -2.6546,-0.40642 -3.9532,-0.52539 -1.7515,-0.16095 -6.1212,0.53967 -7.3847,-0.96289 -0.2239,-0.98072 -0.3865,-2.49289 -0.7774,-3.39063 -0.5488,-1.26163 -4.4123,-8.08789 -5.7539,-9.01562 -1.0987,-0.75978 -3.7737,-1.56296 -4.5605,-2.59766 -1.3296,-1.74949 -4.9104,-12.8154 -5.8321,-15.43164 -5.7523,-0.3579 -11.7345,-0.058 -17.4668,0.42188 l -0.5468,-0.76172 c -3.468,-4.8196 -7.8457,-11.39399 -14.0039,-12.93555 -2.2764,-0.57082 -4.8459,-0.22791 -7.0743,-1.09766 -2.0263,-2.19936 0.7442,-2.24494 -4.1953,-5.41601 -0.4868,-0.31291 -1.2677,-0.83897 -1.9375,-0.79297 -1.9094,-1.35961 -1.9573,-3.88188 -2.998,-5.73633 -0.6229,-1.11168 -2.9623,-2.82018 -2.6484,-4.25976 l -0.4336,-0.39063 c -0.155,-2.61723 -1.4587,-4.82235 -1.3907,-7.56055 1.2676,-1.68751 2.4635,-3.35768 4,-4.82226 0.9157,-2.50327 0.2395,-4.76837 -2.1308,-6.08399 -2.3393,0.18295 -4.563,1.13988 -6.8223,1.17188 l -1.9121,-1 1.4785,-1.34766 c -0.1849,-0.90074 -1.1484,-2.29624 -1.6953,-2.99804 l -1.5625,-0.73829 -2.5644,0.86719 -0.9141,-0.60742 c -0.047,-1.07969 -1.5704,-2.01896 -1.8223,-3.43555 l -1.1308,-0.78125 c -0.1659,-0.83076 -0.5196,-2.66762 -0.4336,-3.4414 0.2339,-2.11037 2.0879,-8.10385 1.1992,-9.73438 l 0.6484,-1.86914 -0.7011,-2.82226 0.9511,-2.86719 -0.2617,-0.73828 c -0.6618,-0.48782 -2.2771,-0.60555 -3.0449,-0.56055 -1.1757,-1.51657 -2.2934,-1.19424 -4.0879,-0.86133 -1.6265,-1.44459 -3.6807,-2.20751 -5.8281,-1.55469 l -0.7403,-0.6914 c -0.4969,-1.11068 0.3141,-3.36325 -1.0195,-3.95508 l 0.625,-1.01172 -0.7383,-1.60742 0.4785,-0.60938 0.6094,0 2.086,1.39063 0.3925,-0.47656 -0.2617,-1 c -2.7083,-1.28863 -4.0889,-3.61177 -6.8691,-4.5625 l -0.6094,0.34961 -1,-0.21875 c -0.2829,0.31793 -1.2835,0.31971 -1.6504,0.26171 -0.045,-0.33191 -0.4555,-3.1078 -0.4355,-3.25976 0.149,-1.25663 1.5203,-5.25958 3.1308,-5.68945 0.3516,-0.58215 0.6784,-1.1491 0.9863,-1.71289 l -706.62686,0 z"
     id="rect4"
     inkscape:connector-curvature="0" />
  <path
     style="fill:#ce1126"
     d="m 563.38667,0 -1.1835,0.75195312 c -0.2579,1.25563798 -0.3281,2.48676498 -1.0469,3.56445308 l -0.8906,-0.035156 c -0.17,0.3948893 -0.2307,0.9042926 -0.3047,1.3261719 l 0.4902,0.8222656 c 0.6698,0.1249598 1.9179,0.5665259 2.3867,1.109375 l 0.4141,2.1699219 c -2.3353,1.4475774 -4.692,1.2289284 -7.1113,2.0546874 -0.248,0.08498 -0.7929,0.487297 -1.0079,0.529297 -1.5075,0.297919 -2.3327,-0.141228 -3.8632,0.8125 -0.6678,0.41688 -1.2311,3.096238 -1.42,3.748047 l -0.7421,0.701172 -1.1426,0.140624 -0.4785,0.611329 -0.1661,1.261718 -0.5253,0.308594 c 0.063,-0.479869 -1.9416,-2.695474 -2.3125,-3.152344 0.219,-2.036406 -2.4765,-3.776966 -0.629,-5.902343 -1.2716,0.24093 -3.332,-1.4197149 -4.3437,-0.753907 l -6.2461,4.107422 c 0.06,2.884155 -2.0257,5.494274 -1.9277,8.230469 0.05,1.451578 0.7756,3.221042 1.0195,4.724609 -1.1516,0.686799 -2.3224,1.38239 -3.541,1.949219 -0.9078,-0.405879 -3.9968,-1.47222 -4.9805,-0.90039 -0.7668,1.130678 -2.2895,2.309521 -3.5742,2.77539 -0.3259,1.852457 -1.4205,4.161609 -3.375,4.773438 l -1.543,-0.199219 -1.289,-1.203125 c -0.7108,0.326909 -2.6841,2.878841 -3.2559,3.55664 l -1.2949,-1.679687 -2.11134,0.06641 c -4.29875,3.431005 -5.39021,7.742529 -4.90235,13 -1.05068,0.843749 -3.40263,2.065142 -4.82422,1.951172 -0.49986,-2.467276 -1.18157,-4.699775 -2.4082,-6.869141 -0.73179,-0.478858 -2.10736,-0.673968 -2.95312,-0.667968 l -0.3125,-0.519532 0.12109,-1.259765 c -0.094,-0.562839 -0.85719,-0.916158 -1.28906,-1.205078 -0.51885,0.345899 -1.02708,1.263087 -1.08008,1.878906 l -1.90039,-1.111328 -0.13672,-0.564453 c 0.38089,-1.187658 1.37359,-2.639797 2.74219,-2.716797 0.37289,-0.403889 0.62873,-1.291192 0.55273,-1.832031 -0.61282,0.09997 -2.38147,0.132599 -2.86133,-0.40625 l -0.57031,0.136718 -0.82422,1.179688 -0.52344,0.134766 c -0.46086,-0.146949 -1.06411,-0.734345 -1.33203,-1.115235 -0.10197,-0.514849 0.0504,-1.342146 0.32032,-1.791015 l -0.35352,0.04102 c -3.7659,-0.08995 -7.76842,-0.352908 -11.52734,-0.167969 -0.42087,0.021 -0.88662,0.283313 -1.3125,0.320313 -0.89573,0.07798 -1.74823,-0.401203 -2.16211,-0.408203 -2.39531,-0.04199 -5.28199,-0.480879 -7.6543,-0.167969 l -0.99023,-1.900391 -3.56446,0.002 -0.76367,2.138671 c -1.42358,0.23393 -3.0299,0.495391 -4.48047,0.400391 l -2.29101,2.982422 c -0.049,0.06298 -0.74776,2.207479 -1.09766,2.736328 l -2.25586,-0.130859 -2.4043,-2.271485 -3.43554,-0.349609 -0.51172,-2.166016 -1.65039,-1.714843 c -1.96643,-0.004 -4.11693,-0.168678 -6.06836,-0.01172 -0.31491,0.02499 -1.32816,0.592906 -1.66406,0.628906 -1.46158,0.16197 -3.13762,0.04155 -4.61719,0.06055 l -2.13086,-1.492188 c -3.26904,0.06098 -6.50748,-0.290561 -9.76953,-0.394531 -3.65294,-0.115 -7.33517,0.0047 -10.9961,-0.07227 l -0.43554,3.4375 c -2.78619,-0.02799 -5.48817,-0.430025 -8.23438,-0.583985 -1.82447,-0.103 -3.67558,0.01836 -5.49804,-0.09961 -2.59425,-0.16795 -5.20263,-0.647702 -7.79688,-0.763672 -4.29974,-0.19195 -8.66686,-0.111969 -12.97461,-0.167969 -0.32391,-0.004 -0.7416,-0.289062 -1.0625,-0.289062 -3.20708,0.003 -6.63059,0.693421 -9.84766,0.226562 -2.18536,0.240919 -4.44231,0.293578 -6.63867,0.267578 l -6.5,-5.248047 c -3.54196,-0.14996 -7.02971,0.127375 -10.55468,0.109375 -2.89117,-0.014 -5.78981,-0.200703 -8.66797,-0.220703 l -10.07618,-0.06641 c -0.83776,1.621527 0.59686,4.90823 -1.09765,5.792969 -0.89574,-0.08897 -4.71732,-0.706516 -5.36914,-0.222657 -3.88286,-1.947437 -5.92562,-1.821247 -10.06641,-0.599609 l -5.48633,1.619141 c -0.42688,0.15196 -2.0576,1.277844 -2.35351,1.339844 -1.3766,0.285919 -3.44033,0.114109 -4.87891,0.162109 -0.43787,-0.29992 -2.30828,-1.09886 -2.70117,-1.130859 -4.48869,-0.37492 -9.36477,-0.112938 -13.89844,-0.08594 -6.5451,0.03899 -13.16108,-0.117372 -19.70117,0.185547 -2.02742,0.09397 -4.12603,0.491187 -6.14844,0.492187 -0.51985,0 -1.72012,-0.504328 -2.20898,-0.486328 l -13.14063,0.478516 c -0.058,0.003 -0.57325,0.274453 -0.65625,0.314453 -2.65023,-0.628809 -5.78701,-0.117187 -8.49023,-0.117187 -3.79189,0 -7.93736,0.303357 -11.69727,0.02344 -2.3933,-0.178949 -4.89008,-0.67595 -7.27539,-1.005859 -0.30491,-0.04198 -1.08444,0.234218 -1.40234,0.199218 -0.75778,-0.08498 -1.54105,-0.512312 -2.29883,-0.613281 -2.29233,-0.30491 -5.04414,-0.482406 -7.35547,-0.566406 -0.24593,-0.009 -0.73789,0.214375 -1.00781,0.234375 -2.21836,0.15495 -4.5043,0.311906 -6.72266,0.421875 -2.3853,0.11795 -4.82063,0.145922 -7.21093,0.169922 -2.32832,0.02399 -4.62084,-0.2815 -6.91016,-0.3125 -1.07469,-0.016 -2.17526,0.1755 -3.25195,0.1875 -3.59895,0.03797 -7.20838,-0.158453 -10.82032,-0.06445 l -11.38672,0.292968 c -1.67551,0.04299 -3.3578,-0.733253 -4.98632,-0.908203 -1.21665,-0.129969 -2.55847,-0.06952 -3.78711,-0.103515 -0.14496,-0.003 -0.58231,0.2105 -0.69727,0.1875 -1.59453,-0.326909 -8.59794,-1.589782 -10.10351,-1.550782 -5.63636,0.14493 -11.1494,0.473621 -16.75977,-0.07422 l -0.6543,0.271484 c -0.75278,-0.53485 -7.04187,-0.262266 -8.10156,-0.322266 -1.20665,-0.06898 -2.16088,-0.50318 -3.4375,-0.28125 l -1.86914,-1.224609 c -3.90886,0.19797 -7.82547,0.180703 -11.73633,0.0957 -0.66581,1.209648 -0.93417,4.420911 -1.5,4.96875 0.16395,0.938729 -0.20686,2.512735 -0.46679,3.396484 1.14167,3.948853 6.47477,3.410434 3.17773,9.851563 -0.65181,1.274628 -1.28749,2.688813 -2.41016,3.644531 -0.83776,0.42688 -2.98659,1.125593 -3.94531,0.720703 -0.54584,0.30491 -1.19369,0.553421 -1.47461,1.15625 -0.34589,1.729498 0.15193,3.221765 0.043,4.863282 -0.12397,1.835467 -2.03392,3.27065 -2.59375,4.867187 -0.066,0.18795 -0.0761,2.557141 -0.12305,2.957031 -0.27992,2.358306 -1.86716,7.765688 -3.38672,9.703125 -1.11666,1.424577 -2.26785,3.206607 -3.52148,4.490235 -2.68522,2.750196 -3.46905,1.26415 -4.3418,5.376953 -0.025,0.11497 0.0835,0.593368 0.10352,0.736328 l 1.00781,-0.146484 1.33985,1.279296 c 0.75878,0.03099 2.94943,0.404472 3.40429,1.15625 0.41188,0.769779 -0.15227,1.861852 -0.4082,2.556641 -0.43687,1.188658 -0.24249,2.498099 -1.24219,3.423828 -2.70322,2.507275 -5.24229,2.851 -4.47851,6.839853 l 0.41015,2.13476 c 0.82576,1.84445 2.28675,3.56952 3.23047,5.375 0.86775,1.65751 1.42332,3.51531 2.28906,5.17383 0.19095,0.36589 1.34946,1.72173 1.43946,1.97265 0.77078,2.17637 0.44548,4.83641 1.61914,7.00977 0.6638,1.23164 2.11742,2.0771 2.74023,3.4707 1.15267,2.57324 1.0936,5.89028 2.99805,8.05664 0.12196,0.13796 0.15255,0.26443 0.3125,0.35743 l 6.86133,3.3125 c 2.52326,0.95772 8.38557,0.85319 9.86914,2.08984 -0.51285,1.16665 -1.91621,2.60379 -2.83594,3.43555 -0.85675,0.003 -2.20041,0.63282 -2.69727,1.34961 -0.37789,-0.085 -2.19497,-0.53144 -2.33593,-0.52344 -4.59666,0.25393 -4.45286,6.92308 -5.26563,9.9082 -0.18994,0.6988 -1.85388,3.74619 -1.54297,4.58594 1.17765,3.19207 1.72448,3.89612 4.72461,5.81055 l 3.9336,2.50976 c 2.7682,1.40259 5.58882,1.31486 7.61523,3.95508 1.52156,1.98143 1.05241,5.04268 -0.49414,6.86914 -1.30562,1.54256 -3.18379,2.76049 -4.44141,4.33203 l -1.05078,2.53711 c -0.47586,2.60624 2.30187,7.81181 1.79102,9.69727 -0.11396,0.42187 -1.18336,4.22926 -1.19336,4.4082 -0.037,0.61383 0.1328,0.95077 0.2168,1.55859 0.3219,2.31032 0.26513,7.05023 0.66601,8.71875 0.26993,1.12567 1.04114,2.24262 1.37305,3.36328 0.094,0.31291 0.0661,1.60638 0.16406,1.82032 0.6848,1.51756 1.86291,3.13159 2.72266,4.57617 0.65281,1.09767 3.4546,9.20535 3.17968,9.74219 -4.17478,8.13764 -4.37445,6.74896 -2.5,14.89258 0.53685,2.33533 5.92022,6.43299 5.6543,7.80859 -0.038,0.62982 -0.79363,2.1202 -1.22851,2.49609 -1.17666,1.0207 -2.82281,1.63514 -3.98047,2.67383 -2.39531,2.14937 -2.72549,5.14774 -4.24805,7.58203 -0.69079,1.10568 -2.08497,2.29596 -2.16797,3.68555 1.08069,3.0991 1.42459,3.50947 0.29492,6.8125 1.27063,4.42872 4.67693,2.91958 6.1875,5.92969 0.42787,2.32333 0.713,3.91442 1.63672,6.00781 -2.44328,3.39101 -4.03799,6.56504 -4.71679,10.63086 1.30862,4.85958 4.05854,7.74114 8.44726,10.23242 1.16866,0.6628 2.88618,0.77513 3.92188,1.67187 1.55255,1.3446 3.01442,3.41239 4.41601,4.96094 l 0.0801,1.45117 c 0.47286,3.80189 -1.2067,7.99513 -0.29297,11.66407 1.83347,7.36186 4.71334,7.93456 -0.57812,14.76758 -1.27263,1.64551 -2.36696,3.11088 -4.57032,3.59374 -0.56883,0.78378 -0.68573,2.96328 -0.67773,3.875 0.032,3.8049 1.91957,4.86073 5.43555,5.94141 0.62681,0.19293 1.41672,0.10953 2.06054,0.27149 1.51756,0.37989 2.92089,2.48795 3.30078,3.89453 1.43458,5.31746 -3.94821,5.55646 -6.90234,7.84179 l -1.71875,1.70704 c -0.28992,0.28691 -1.43301,1.43532 -1.62695,1.95117 -1.92743,5.1365 -3.12346,9.70063 -9.39063,10.31445 l -1.32812,1.45508 c 2.03541,2.41129 2.48818,7.06882 1.35351,9.95898 -0.45087,1.14767 -1.49829,2.19433 -1.99414,3.33399 -0.97867,2.25025 1.84387,5.07557 3.95313,6.52343 l 606.9297,0 c -0.3282,-2.45603 -0.061,-4.76388 0.2364,-7.20507 0.207,-1.7045 0.7428,-4.40819 2.1074,-5.67383 l 0.5234,-0.0469 0.6504,-0.56836 c 1.1207,-1.40759 -0.2428,-6.65479 -0.7637,-8.10937 l 0.3438,-0.7832 c 2.0184,-0.91474 3.7797,-1.80649 5.6562,-2.99415 1.2476,-2.7692 2.6868,-6.041 4.9161,-8.15039 l -0.049,-0.78125 c -1.7794,-1.17066 -3.7009,-4.65907 -4.5097,-6.51953 0.4219,-1.18066 0.2601,-2.39485 0.541,-3.5625 0.3919,-1.63153 5.7426,-8.10835 7.5351,-8.99609 l 0.5137,-1.47852 c -0.4739,-0.90573 -0.5355,-2.09545 -0.6934,-3.07617 -0.4739,-2.93215 1.9108,-2.64029 2.6856,-5.18555 2.0794,-6.837 1.3105,-10.94683 -5.4805,-13.28515 -0.5119,-0.80977 -1.4922,-2.01416 -2.3789,-2.45703 -0.5789,-0.13096 -2.5858,0.55678 -3.1426,0.76172 -0.01,-0.6838 0.062,-3.06263 0.5411,-3.60547 -0.111,-0.54284 -0.3201,-1.13184 -0.629,-1.59571 l -1.8769,-0.89062 c -0.2969,-1.13467 -4.6452,-2.03836 -5.457,-2.40625 -0.8787,-0.39889 -1.3303,-1.45292 -2.502,-1.41992 -0.8176,0.023 -1.8033,0.27833 -2.6211,0.40429 -2.4813,-1.71949 -2.6651,-0.58347 -4.8535,0.0274 -1.2666,0.3529 -2.7209,0.51483 -4.0215,0.75976 l -0.2597,0.39258 -0.834,-0.68945 c -1.5956,-0.32591 -3.4846,-0.60822 -5.1211,-0.44727 l -2.4375,1.57813 c -0.139,0.50985 0.434,1.43354 0.7539,1.77344 l -0.168,1.1289 c -1.1057,0.55484 -1.1602,3.16085 -2.4668,4.26953 -1.1087,0.59482 -2.6816,0.56183 -3.2734,0.84375 -3.495,1.66952 -6.284,3.97827 -10.2129,3.1875 l -1.1016,-1.12109 -1.5742,-0.0332 -0.3945,-0.25977 0.3457,-0.69531 c -0.5508,-1.60853 -2.2,-2.70107 -3.3926,-3.88672 -0.2319,-0.94372 -0.6779,-3.19234 -0.377,-4.16406 l 0.6524,-0.52539 1.1816,-0.0937 1.8457,1.33398 c 1.0607,-0.15695 2.5373,-0.0947 3.543,0.32617 2.3983,-0.99671 -0.01,-1.98502 5.0156,-2.50586 0.7278,-1.49556 3.0172,-1.36293 2.9512,-3.40234 l -0.5293,-0.69141 c -1.4626,-0.16895 -2.3037,-2.23247 -4.0352,-2.10351 -2.1743,0.16096 -6.5029,1.34063 -8.3574,-0.29688 -0.7677,-0.72079 -1.6227,-4.30642 -1.3008,-5.24414 0.2829,-0.30491 0.5764,-0.63706 0.7793,-1.00195 l 0.1582,-2.65039 0.5196,-0.69727 1.4453,0.0352 2.1523,1.37695 c 0.1309,-0.013 0.9299,-0.0607 1.0039,-0.0957 0.3709,-0.17195 3.7229,-1.76674 3.8848,-1.80274 0.4369,-0.098 0.7034,0.0308 1.1523,0.0508 1.8515,0.082 5.4672,-0.53938 6.6329,-0.35743 1.6285,0.25393 3.4615,1.00361 5.08,1.09961 1.4896,0.087 5.1968,-2.04816 4.9219,-3.89062 -0.9547,-0.90774 -1.4022,-2.22265 -1.8711,-3.4043 -0.4748,-1.18965 -1.4607,-1.94576 -1.4707,-3.31836 -0.014,-3.30505 2.7393,-2.98178 0.5059,-6.97461 -0.5648,-0.12797 -1.3169,-0.75345 -1.5508,-1.27929 l -1.1758,-0.44532 c -0.2089,-2.41829 -0.4263,-7.3783 -2.7676,-8.7539 -0.6318,0.032 -2.5506,-0.052 -3.0234,-0.5918 l -0.3535,-0.77734 c 0.7068,-1.36261 1.6347,-3.90996 1.7597,-5.39453 0.01,-0.094 -0.525,-1.93493 -0.625,-2.29883 l 0.4786,-0.56641 0.9629,-0.0937 0.3886,-0.86914 -0.8027,-2.29687 c 0.3319,-1.28662 1.2245,-1.80136 1.6894,-2.78907 0.3089,-0.65781 0.2718,-1.62094 0.5997,-2.25976 1.1077,-2.15637 2.6468,-2.88287 2.5918,-5.79102 -0.086,-4.75962 -2.1755,-8.73196 -0.3301,-13.64453 0.062,-0.16395 0.064,-0.27491 0.1582,-0.42188 1.5755,-2.44129 4.4223,-1.19701 5.459,-2.81054 l 0.3886,-1 c 0.2749,-1.48957 -3.2193,-4.20185 -4.084,-5.48047 -3.1611,-4.68464 -0.4683,-4.66993 -0.7382,-9.64649 0,-0.087 -0.6899,-1.38566 -0.7539,-1.51562 l 0.041,-0.60742 0.7422,-0.39453 c 1.0897,-0.20694 3.641,1.7564 6.4062,1.4375 l 1.7617,1.25 0.7442,-0.0469 c 0.6288,-0.56084 0.6822,-0.44596 0.9551,-1.13476 -0.8788,-1.11068 1.7535,-5.41463 0.8378,-6.95118 l -0.6562,-0.084 c -4.5667,-4.95557 -9.6624,-2.59838 -11.2949,-4.88672 l -0.4942,-1.82031 c 0.8398,-1.92744 2.2288,-6.17424 1.8809,-8.34961 -0.194,-1.20865 -1.1236,-2.82066 -1.6035,-4.0293 0.4749,-1.53656 0.051,-2.89812 0.061,-4.42969 0.01,-1.59352 1.5019,-4.94717 1.6309,-6.08984 0.2419,-2.15036 0.1207,-4.5551 0.1777,-6.73047 0,-0.06 0.4805,-0.89191 0.5645,-1.04687 1.1467,-0.25192 2.8026,-1.52035 3.1875,-2.66602 l -0.9219,-0.16797 -0.8438,-1.38672 c 1.2337,-1.46158 2.8017,-2.96484 4.4063,-4.01953 l -0.09,-0.47851 c -0.4039,-0.28592 -1.6624,-0.97344 -2.1992,-0.89844 -1.0367,0.14396 -2.2035,0.41117 -3.2422,0.45117 -1.4046,0.055 -2.2329,-0.53256 -3.7285,0.2832 -0.7808,-0.4059 -3.4637,0.12035 -4.7383,-0.0586 l -0.3105,-0.65039 c 0.2359,-0.6868 2.1072,-1.66685 2.709,-1.92578 0.1949,-0.50884 0.1852,-1.41726 -0.057,-1.91211 l -1.1464,-1.12109 -0.6153,-0.041 -0.7871,0.43945 -0.5273,-0.1289 c -1.9834,-3.32904 0.7212,-5.55111 -4.8262,-7.3086 l -0.1816,-0.95507 1.9589,-2.61719 c -0.6248,-3.27905 -1.4928,-1.69874 -3.2773,-4.67188 l -1.8438,-0.0742 c -0.4869,0.13496 -1.0897,1.2004 -1.2617,1.61329 -1.0527,0.99471 -5.6588,0.32014 -6.8945,-0.34766 -0.6888,-0.3739 -1.3795,-0.99699 -2.0273,-1.46484 l -0.877,0.0488 c -0.3929,0.51584 -1.301,1.01167 -1.9238,1.14063 0.167,0.51985 0.4454,1.90679 0.1465,2.43164 -0.5039,-0.12297 -1.6957,-0.14944 -2.1036,0.27344 -0.6828,-0.33791 -1.6093,-2.36854 -1.8652,-3.02735 -1.6855,-0.3449 -2.7347,-1.97349 -3.1816,-3.49804 l 0.3418,-1.60938 c -0.2769,-1.40259 -2.6891,-2.01844 -2.7911,-3.45703 -0.059,-0.84775 0.1623,-1.75372 0.1153,-2.60547 -0.047,-0.84276 -1.2992,-3.76156 -1.5391,-4.73828 -1.6756,-6.78303 -2.8029,-7.12599 -9.125,-9.44531 -1.4526,-0.53384 -3.5651,-0.76976 -4.8887,-1.47657 -2.2883,-1.22065 -2.8497,-4.37437 -4.4062,-6.21484 -1.6055,-1.90145 -4.8875,-1.75003 -6.9219,-2.80273 -0.6428,-0.3329 -1.3459,-0.94928 -2.1367,-1.45313 -1.4296,-0.60082 -9.3911,-3.47338 -10.2148,-3.99023 -1.2287,-0.77178 -2.3011,-2.3463 -2.627,-3.753913 -0.3279,-1.410588 -0.1332,-3.36793 -0.6191,-4.685547 -0.6188,-1.688508 -3.2185,-5.59506 -3.1895,-7.267578 0.277,-0.611819 1.9673,-1.452523 2.5371,-1.689453 l -0.2539,-0.787109 c 0.6418,-0.983709 0.086,-3.707744 -0.2539,-4.689453 l 0.8242,-1.353516 -0.4472,-1.039063 0.3457,-0.783203 1.0996,0.07813 c 0.234,-0.636819 1.0527,-2.572907 1.6465,-2.966796 l 1.0546,-0.09375 c 0.8048,-0.384889 1.4047,-1.939335 1.4747,-2.746094 1.7645,-1.266638 3.5063,-2.451282 3.6543,-4.892578 -0.7948,-1.622527 -1.4936,-3.733148 -1.3047,-5.515625 0.3849,-3.619944 1.4241,-7.549151 3.6035,-10.572266 -0.215,-3.064105 -0.285,-5.571379 0.4648,-8.646484 0.7777,-0.772769 2.4203,-0.78854 3.4649,-0.9375 0.9248,-1.007698 2.2188,-2.645559 3.7734,-2.47461 l 0.5996,-0.53125 0.4258,-1.396484 c -1.3087,-2.718215 -1.0937,-10.089386 -1.1797,-13.019531 -0.02,-0.633819 -0.346,-1.352322 -0.416,-1.994141 -0.4458,-4.108803 0.1535,-3.815139 -2.5977,-7.033203 -0.15,-0.17495 -1.9724,-0.677313 -2.2773,-0.695313 -2.7432,-0.16095 -6.1828,-0.45606 -8.834,0.429688 -1.5626,0.519849 -3.04,1.443276 -4.6016,1.953125 -1.5875,0.518869 -5.7252,0.788837 -7.2558,0.460937 l -0.6231,-0.730468 c -0.4139,0.18695 -2.0567,-1.075337 -2.4316,-1.322266 l -2.8613,-0.103516 c -1.5855,-0.997709 -0.045,-5.7983559 0.1914,-7.0839838 -5.5284,-1.4675676 -11.1303,-2.7880363 -16.6367,-4.3085938 C 568.92667,1.4509924 566.10887,0.21593964 563.38667,0 Z"
     id="rect8"
     inkscape:connector-curvature="0" />
  <path
     d="m 420.10547,405.33333 131.7009,405.33334 -344.79679,-250.50816 426.19179,0 -344.79681,250.50816 z"
     id="path10"
     inkscape:connector-curvature="0"
     style="fill:#000000" />
</svg>
